<?xml version="1.0" encoding="UTF-8"?><svg xmlns="http://www.w3.org/2000/svg" viewBox="0 0 700 700"><defs><style>.cls-1{stroke-miterlimit:10;}.cls-1,.cls-2{stroke-linecap:round;}.cls-1,.cls-2,.cls-3{fill:none;stroke:#333;}.cls-1,.cls-3{stroke-width:3px;}.cls-4{fill:#fff;}.cls-2{stroke-width:5px;}.cls-2,.cls-3{stroke-linejoin:round;}</style></defs><g id="Layer_3"><path class="cls-4" d="M0,0V700H700V0H0ZM674.87,203.5l-67.02,93.44c-2.47,3.43-7.18,4.35-10.75,2.11l-56.82-35.66v371.72c0,5.52-4.47,9.99-9.99,9.99H169.71c-5.52,0-9.99-4.47-9.99-9.99V263.39l-56.82,35.66c-3.57,2.24-8.28,1.32-10.75-2.11L25.13,203.5c-2.53-3.51-1.79-8.4,1.65-11.02L155.03,94.73c.85-.66,1.8-1.19,2.82-1.55l110.91-34.65,13.65-7.69s21.05,15.04,67.59,15.04,69.06-15.04,69.06-15.04l13.65,7.69,109.44,34.65c1.02,.36,1.97,.89,2.82,1.55l128.25,97.75c3.44,2.62,4.18,7.51,1.65,11.02Z"/></g><g id="Layer_5"><path class="cls-1" d="M159.84,103.39c22.46,75,.98,150,.98,150"/><path class="cls-3" d="M351.47,98.19c-78.91,0-68.62-44.69-68.62-44.69"/><path class="cls-1" d="M541.63,103.39c-22.46,75-.98,150-.98,150"/><path class="cls-2" d="M351.47,65.88c46.58,0,67.59-15.04,67.59-15.04l13.65,7.69,110.91,34.65c1.02,.36,1.97,.89,2.83,1.55l128.25,97.74c3.44,2.62,4.17,7.51,1.65,11.03l-67.03,93.43c-2.46,3.43-7.17,4.36-10.75,2.11l-56.81-35.66v371.72c0,5.52-4.47,9.99-9.99,9.99H169.71c-5.52,0-9.99-4.47-9.99-9.99V263.39l-56.81,35.66c-3.58,2.25-8.29,1.32-10.75-2.11L25.13,203.5c-2.52-3.52-1.79-8.4,1.65-11.03L155.03,94.73c.85-.67,1.81-1.19,2.83-1.55l110.91-34.65,13.65-7.69s21.01,15.04,67.59,15.04h1.47Z"/><path class="cls-3" d="M432.42,57.24s9.5,55.73-80.46,55.73h-2.44c-89.96,0-80.46-55.73-80.46-55.73"/><path class="cls-3" d="M417.46,68.34s-18.2,12.29-66.5,12.29h-.44c-48.3,0-66.5-12.29-66.5-12.29"/><path class="cls-3" d="M350,98.19c78.91,0,68.62-44.69,68.62-44.69"/></g></svg>